<?xml version="1.0" encoding="UTF-8"?>
<svg width="24px" height="24px" viewBox="0 0 24 24" version="1.1" xmlns="http://www.w3.org/2000/svg" xmlns:xlink="http://www.w3.org/1999/xlink">
    <title>Coupon Ticket</title>
    <g stroke="none" stroke-width="1" fill="none" fill-rule="evenodd">
        <path d="M20,8 L20,16 C18.9,16 18,16.9 18,18 L6,18 C6,16.9 5.1,16 4,16 L4,8 C5.1,8 6,7.1 6,6 L18,6 C18,7.1 18.9,8 20,8 Z M21.5,6 L21.5,18 C21.5,18.83 20.83,19.5 20,19.5 C19.17,19.5 18.5,18.83 18.5,18 L5.5,18 C5.5,18.83 4.83,19.5 4,19.5 C3.17,19.5 2.5,18.83 2.5,18 L2.5,6 C2.5,5.17 3.17,4.5 4,4.5 C4.83,4.5 5.5,5.17 5.5,6 L18.5,6 C18.5,5.17 19.17,4.5 20,4.5 C20.83,4.5 21.5,5.17 21.5,6 Z" fill="#3554D1" fill-rule="nonzero"></path>
        <path d="M15,12 C15,13.1 14.1,14 13,14 L10,14 C9.5,14 9,13.8 8.6,13.4 C8.2,13 8,12.5 8,12 C8,10.9 8.9,10 10,10 L13,10 C13.5,10 14,10.2 14.4,10.6 C14.8,11 15,11.5 15,12 Z" fill="#3554D1" fill-rule="nonzero"></path>
    </g>
</svg>
